{"title":"Jazz on a Summers Day (1960)(avi)[rogercc]","uid":6519806,"size":1257442967,"categoryP":"video","categoryS":"movies","magnet":"?xt=urn:btih:e1e2d6e161bab0f88aef51486dfe167ae9ee5132&amp;dn=Jazz+on+a+Summers+Day+%281960%29%28avi%29%5Brogercc%5D&amp;tr=udp%3A%2F%2Ftracker.openbittorrent.com%3A80&amp;tr=udp%3A%2F%2Fopen.demonii.com%3A1337&amp;tr=udp%3A%2F%2Ftracker.coppersurfer.tk%3A6969&amp;tr=udp%3A%2F%2Fexodus.desync.com%3A6969","seeders":1,"leechers":0,"uploader":"rogercc1","files":3,"time":1309950452,"description":"JAZZ ON A SUMMERS DAY\nIMdB :http://www.imdb.com/title/tt0052942\nOriginal Release :1960\nDirector   : Aram Avakian, Bert Stern\nGenre    : Documentary\nFormat:   avi\n\n\nSet at the Newport jazz festival in 1958, this documentary mixes images of water and the town with performers and audience. The film progresses from day to night and from improvisational music to Gospel. It's a concert film that suggests peace and leisure, jazz at a particular time and place. \nAlthough not released until 1960, this feature-length documentary captures all the highlights of the 1958 Newport Jazz Festival -- opening with scenes of workers putting finishing touches on the stage shell and a jalopy carrying a Dixieland band through town. The musical numbers are intercut with Newport Harbor, Narragansett Bay and white-sailed yachts over the bay during the 1958 America's Cup Trials. Reviewing what was reportedly more than 100,000 feet of exposed negative color stock, Bert Stern realized he was lacking audience shots. So in his studio, Stern set up chairs and benches over fake funeral grass, invited jazz critic Martin Williams and others to the studio -- and filmed their reactions as they looked at a rough cut. \n \nLineup\n\nJimmy Giuffre 3: Jimmy Giuffre, Bob Brookmeyer, Jim Hall\nThelonious Monk Trio: Thelonious Monk, Henry Grimes, Roy Haynes\nSonny Stitt and Sal Salvador\nAnita O'Day\nGeorge Shearing\nDinah Washington\nGerry Mulligan Quartet: Gerry Mulligan, Art Farmer\nBig Maybelle\nChuck Berry\nChico Hamilton Quintet\nLouis Armstrong and his All-Stars: Trummy Young, Danny Barcelona\nArmstrong &amp; Jack Teagarden\nMahalia Jackson\n\n\n\nGeneral\nComplete name                    : F:\\MUSIC UP\\Jazz on a Summers Daya Summer's Day\nFormat                           : AVI\nFormat/Info                      : Audio Video Interleave\nFile size                        : 1.17 GiB\nDuration                         : 1h 21mn\nOverall bit rate                 : 2 056 Kbps\nMovie name                       : Jazz on a Summer's Day (1960)\nDirector                         : Aram Avakian, Bert Stern\nGenre                            : Documentary\nWriting application              : VirtualDubMod 1.5.10.2 (build 2540/release)\n\n\nVideo\nID                               : 0\nFormat                           : MPEG-4 Visual\nFormat profile                   : Advanced Simple@L5\nFormat settings, BVOP            : 2\nFormat settings, QPel            : No\nFormat settings, GMC             : No warppoints\nFormat settings, Matrix          : Default (H.263)\nMuxing mode                      : Packed bitstream\nCodec ID                         : XVID\nCodec ID/Hint                    : XviD\nDuration                         : 1h 21mn\nBit rate                         : 1 662 Kbps\nWidth                            : 640 pixels\nHeight                           : 472 pixels\nDisplay aspect ratio             : 4:3\nFrame rate                       : 23.976 fps\nColor space                      : YUV\nChroma subsampling               : 4:2:0\nBit depth                        : 8 bits\nScan type                        : Progressive\nCompression mode                 : Lossy\nBits/(Pixel*Frame)               : 0.229\nStream size                      : 969 MiB (81%)\nWriting library                  : XviD 1.2.0.dev47 (UTC 2006-11-01)\n\nAudio\nID                               : 1\nFormat                           : AC-3\nFormat/Info                      : Audio Coding 3\nMode extension                   : CM (complete main)\nCodec ID                         : 2000\nDuration                         : 1h 21mn\nBit rate mode                    : Constant\nBit rate                         : 384 Kbps\nChannel(s)                       : 6 channels\nChannel positions                : Front: L C R, Side: L R, LFE\nSampling rate                    : 48.0 KHz\nBit depth                        : 16 bits\nCompression mode                 : Lossy\nStream size                      : 224 MiB (19%)\nAlignment                        : Split accross interleaves\nInterleave, duration             : 42 ms (1.00 video frame)\nInterleave, preload duration     : 500 ms\n ","torrent":{"xt":"urn:btih:e1e2d6e161bab0f88aef51486dfe167ae9ee5132","amp;dn":"Jazz+on+a+Summers+Day+%281960%29%28avi%29%5Brogercc%5D","amp;tr":["udp%3A%2F%2Ftracker.openbittorrent.com%3A80","udp%3A%2F%2Fopen.demonii.com%3A1337","udp%3A%2F%2Ftracker.coppersurfer.tk%3A6969","udp%3A%2F%2Fexodus.desync.com%3A6969"],"infoHash":"e1e2d6e161bab0f88aef51486dfe167ae9ee5132","infoHashBuffer":{"type":"Buffer","data":[225,226,214,225,97,186,176,248,138,239,81,72,109,254,22,122,233,238,81,50]},"announce":[],"urlList":[]}}